<svg width="200" height="29" viewBox="0 0 200 29" fill="none" xmlns="http://www.w3.org/2000/svg">
    <path d="M33.0736 23.4838C36.498 23.4838 39.2741 20.7406 39.2741 17.3567C39.2741 13.9728 36.498 11.2296 33.0736 11.2296C29.6491 11.2296 26.873 13.9728 26.873 17.3567C26.873 20.7406 29.6491 23.4838 33.0736 23.4838Z" fill="#222222"/>
    <path d="M22.2703 17.3567V6.81177H17.0902L11.3495 17.3864L5.60884 6.81177H0.428711V27.9239H5.13997V14.3971L11.2248 24.9718H11.3495L17.496 14.3051V27.9239H31.5576C26.3098 27.1963 22.2718 22.7443 22.2718 17.3567H22.2703Z" fill="#222222"/>
    <path d="M98.5019 23.4003C101.882 22.8581 104.178 19.7108 103.629 16.3706C103.08 13.0304 99.8952 10.7622 96.515 11.3044C93.1347 11.8466 90.8393 14.9939 91.388 18.3341C91.9367 21.6742 95.1217 23.9425 98.5019 23.4003Z" fill="#222222"/>
    <path d="M119.23 17.3864L113.489 6.81177H108.309V17.3567C108.309 22.7428 104.271 27.1948 99.0234 27.9239H113.02V14.3971L119.105 24.9718H119.23L125.376 14.3051V27.9239H130.151V6.81177H124.971L119.23 17.3864Z" fill="#222222"/>
    <path d="M91.2908 6.71484H85.7635L77.4741 19.9372V6.71484H73.0078V27.8983H77.7251L81.8232 21.6569L85.9168 27.8983H91.393L84.3975 17.7231L91.2908 6.71484Z" fill="#222222"/>
    <path d="M179.421 6.83105H173.897L165.612 20.046V6.83105H161.148V28.0041H165.861L169.958 21.7642L174.05 28.0041H179.523L172.531 17.8334L179.421 6.83105Z" fill="#222222"/>
    <path d="M46.1008 3.0265C46.3743 3.68732 46.7845 4.25311 47.321 4.71197C48.3955 5.63118 49.8833 6.07222 51.7378 6.07222C53.5682 6.07222 55.0559 5.63118 56.1515 4.71494C56.7015 4.25607 57.1208 3.69029 57.4003 3.02947C57.6813 2.36864 57.8241 1.61427 57.8361 0.775246L57.8406 0.461914H54.7644L54.7554 0.763368C54.7298 1.58903 54.4518 2.20678 53.9063 2.69534C53.3608 3.17945 52.6439 3.42893 51.6987 3.43042C50.7519 3.42893 50.0441 3.17945 49.5121 2.69683C48.9786 2.20827 48.7051 1.59051 48.6796 0.763368L48.6706 0.461914H45.668L45.6725 0.775246C45.6845 1.61427 45.8243 2.36716 46.0978 3.02799L46.1008 3.0265Z" fill="#222222"/>
    <path d="M195.944 21.7971C194.725 23.0014 193.125 23.6058 191.523 23.6058C189.916 23.6058 188.311 23.0044 187.088 21.7956C185.868 20.5898 185.258 19.0053 185.258 17.4208C185.258 15.8363 185.868 14.2519 187.088 13.046C188.271 11.8773 189.843 11.2343 191.517 11.2329C193.189 11.2329 194.761 11.8759 195.944 13.046L196.405 13.5019L199.572 10.3745L199.109 9.91864C197.082 7.9139 194.384 6.81055 191.515 6.81055C188.647 6.81055 185.949 7.91538 183.922 9.91864C181.894 11.9219 180.776 14.586 180.776 17.4208C180.776 20.2557 181.894 22.9213 183.922 24.9245C186.014 26.9931 188.764 28.0267 191.514 28.0267C194.262 28.0267 197.013 26.9916 199.106 24.9245L199.567 24.4686L196.402 21.3412L195.941 21.7971H195.944Z" fill="#222222"/>
    <path d="M151.957 6.76868H151.472L139.741 20.5346V6.76868H135.318V7.09983V27.9061H139.25L142.152 24.4891L151.427 13.6056V27.9061H155.848V6.76868H152.446H151.957Z" fill="#222222"/>
    <path d="M58.3562 6.76868H57.8708L46.14 20.5331V6.76868H41.7188V7.09983V27.9061H45.6486L48.7503 24.253L57.8257 13.6041V27.9061H62.2484V6.76868H58.8446H58.3562Z" fill="#222222"/>
</svg>
