<svg width="44" height="39" viewBox="0 0 44 39" fill="none" xmlns="http://www.w3.org/2000/svg">
<path d="M22.0114 17.0354C19.8855 17.0307 17.8349 17.8177 16.2627 19.2414C16.4698 19.4727 16.5865 19.7704 16.5914 20.0802C16.5914 20.2527 16.5571 20.4236 16.4905 20.5828C16.424 20.7421 16.3263 20.8867 16.2033 21.0083C16.0803 21.13 15.9344 21.2262 15.7738 21.2914C15.6133 21.3567 15.4415 21.3897 15.2681 21.3886C15.0435 21.3888 14.8228 21.331 14.6275 21.2209C13.6705 22.8381 13.2774 24.7247 13.5093 26.5872C13.7411 28.4497 14.585 30.1837 15.9095 31.5197C17.2342 32.8557 18.9652 33.7188 20.8336 33.9746C22.702 34.2304 24.603 33.8648 26.241 32.9344C27.8789 32.0041 29.1621 30.5613 29.8909 28.8303C30.6197 27.0993 30.7533 25.1772 30.2709 23.3629C29.7885 21.5486 28.717 19.9438 27.2234 18.7979C25.7297 17.6521 23.8974 17.0296 22.0114 17.027V17.0354ZM22.0114 28.2917C21.4658 28.2917 20.9326 28.1307 20.4791 27.8289C20.0257 27.5271 19.6724 27.0982 19.4641 26.5967C19.2557 26.095 19.2016 25.5431 19.3086 25.0108C19.4157 24.4785 19.679 23.9898 20.0653 23.6065C20.4516 23.2233 20.9436 22.9628 21.4788 22.8578C22.0141 22.753 22.5685 22.8085 23.072 23.0174C23.5755 23.2262 24.0054 23.5791 24.3073 24.0313C24.6091 24.4834 24.7694 25.0145 24.7677 25.5573C24.7677 25.9171 24.6963 26.2734 24.5577 26.6057C24.419 26.938 24.2159 27.2398 23.9598 27.4938C23.7038 27.7479 23.3999 27.9491 23.0655 28.086C22.7311 28.223 22.3729 28.2928 22.0114 28.2917Z" fill="url(#paint0_linear_374_661)"/>
<path d="M43.248 33.4011L25.2132 2.27792C23.4521 -0.759308 20.5733 -0.759308 18.8206 2.27792L0.751958 33.4011C-1.00919 36.4299 0.43021 38.9187 3.9525 38.9187H40.0475C43.5698 38.944 45.0092 36.4552 43.248 33.4011ZM22.0127 34.7932C20.3288 34.7927 18.6756 34.3431 17.2249 33.4909C15.7744 32.6387 14.5791 31.4151 13.7634 29.9471C12.9477 28.4791 12.5413 26.8203 12.5864 25.143C12.6316 23.4656 13.1265 21.8309 14.0198 20.4085C13.9514 20.2515 13.9168 20.0819 13.9182 19.9107C13.9182 19.5617 14.0574 19.2269 14.3052 18.9801C14.5528 18.7332 14.8888 18.5946 15.2391 18.5946C15.3179 18.5859 15.3974 18.5859 15.4761 18.5946C16.5887 17.5287 17.9467 16.7511 19.4311 16.33C20.9155 15.9088 22.4809 15.8571 23.99 16.1793C25.4992 16.5015 26.9059 17.1879 28.0868 18.178C29.2677 19.1681 30.1868 20.4319 30.7633 21.8584C31.3398 23.2849 31.5562 24.8306 31.3936 26.36C31.2309 27.8892 30.6941 29.3553 29.8302 30.6298C28.9664 31.9042 27.802 32.9479 26.4389 33.6694C25.076 34.3908 23.5561 34.768 22.0127 34.7679V34.7932Z" fill="url(#paint1_linear_374_661)"/>
<defs>
<linearGradient id="paint0_linear_374_661" x1="21.9999" y1="17.027" x2="21.9999" y2="34.0541" gradientUnits="userSpaceOnUse">
<stop stop-color="#3C3BEB"/>
<stop offset="1" stop-color="#6224FF"/>
</linearGradient>
<linearGradient id="paint1_linear_374_661" x1="22" y1="0" x2="22" y2="38.9189" gradientUnits="userSpaceOnUse">
<stop stop-color="#3C3BEB"/>
<stop offset="1" stop-color="#6224FF"/>
</linearGradient>
</defs>
</svg>
